# xmcd CD database file
#
# Track frame offsets:
#	150
#	19207
#	29455
#	43322
#	63545
#	80567
#	111510
#	132025
#	148712
#	198932
#	215790
#	229625
#
# Disc length: 3259 seconds
#
# Revision: 0
# Processed by: cddbd v1.5.1PL0 Copyright (c) Steve Scherf et al.
# Submitted via: CDex 1.51
#
DISCID=b50cb90c
DTITLE=Alain Lamontagne - Alièno - Souffle
DYEAR=1989
DGENRE=Blues
TTITLE0=La cubaine
TTITLE1=Le marteau faucille au manche rouge
TTITLE2=Pour un de baumugnes
TTITLE3=Le moulin de vent
TTITLE4=Second souffle
TTITLE5=Blues pour les femmes et la vie
TTITLE6=La valse tempête
TTITLE7=La berceuse Australienne du lundi matin
TTITLE8=Le lys cassé
TTITLE9=L'arme blanche
TTITLE10=Et vogue la galère
TTITLE11=Bélize
EXTD=YEAR: 1989
EXTT0=
EXTT1=
EXTT2=
EXTT3=
EXTT4=
EXTT5=
EXTT6=
EXTT7=
EXTT8=
EXTT9=
EXTT10=
EXTT11=
PLAYORDER=
